<?xml version="1.0" encoding="utf-8" standalone="no"?>
<!DOCTYPE svg PUBLIC "-//W3C//DTD SVG 1.1//EN"
  "http://www.w3.org/Graphics/SVG/1.1/DTD/svg11.dtd">
<!-- Created with matplotlib (http://matplotlib.org/) -->
<svg height="360pt" version="1.1" viewBox="0 0 1152 360" width="1152pt" xmlns="http://www.w3.org/2000/svg" xmlns:xlink="http://www.w3.org/1999/xlink">
 <defs>
  <style type="text/css">
*{stroke-linecap:butt;stroke-linejoin:round;}
  </style>
 </defs>
 <g id="figure_1">
  <g id="patch_1">
   <path d="M 0 360 
L 1152 360 
L 1152 0 
L 0 0 
z
" style="fill:#ffffff;"/>
  </g>
  <g id="axes_1">
   <g id="patch_2">
    <path d="M 144 315 
L 549.818182 315 
L 549.818182 43.2 
L 144 43.2 
z
" style="fill:#eaeaf2;"/>
   </g>
   <g id="matplotlib.axis_1">
    <g id="xtick_1">
     <g id="line2d_1">
      <path clip-path="url(#p7bb57c5205)" d="M 162.345661 315 
L 162.345661 43.2 
" style="fill:none;stroke:#ffffff;stroke-linecap:round;"/>
     </g>
     <g id="line2d_2"/>
     <g id="text_1">
      <!-- 0 -->
      <defs>
       <path d="M 4.15625 35.296875 
Q 4.15625 48 6.765625 55.734375 
Q 9.375 63.484375 14.515625 67.671875 
Q 19.671875 71.875 27.484375 71.875 
Q 33.25 71.875 37.59375 69.546875 
Q 41.9375 67.234375 44.765625 62.859375 
Q 47.609375 58.5 49.21875 52.21875 
Q 50.828125 45.953125 50.828125 35.296875 
Q 50.828125 22.703125 48.234375 14.96875 
Q 45.65625 7.234375 40.5 3 
Q 35.359375 -1.21875 27.484375 -1.21875 
Q 17.140625 -1.21875 11.234375 6.203125 
Q 4.15625 15.140625 4.15625 35.296875 
M 13.1875 35.296875 
Q 13.1875 17.671875 17.3125 11.828125 
Q 21.4375 6 27.484375 6 
Q 33.546875 6 37.671875 11.859375 
Q 41.796875 17.71875 41.796875 35.296875 
Q 41.796875 52.984375 37.671875 58.78125 
Q 33.546875 64.59375 27.390625 64.59375 
Q 21.34375 64.59375 17.71875 59.46875 
Q 13.1875 52.9375 13.1875 35.296875 
" id="ArialMT-30"/>
      </defs>
      <g style="fill:#262626;" transform="translate(159.565192 329.157812)scale(0.1 -0.1)">
       <use xlink:href="#ArialMT-30"/>
      </g>
     </g>
    </g>
    <g id="xtick_2">
     <g id="line2d_3">
      <path clip-path="url(#p7bb57c5205)" d="M 241.570015 315 
L 241.570015 43.2 
" style="fill:none;stroke:#ffffff;stroke-linecap:round;"/>
     </g>
     <g id="line2d_4"/>
     <g id="text_2">
      <!-- 10 -->
      <defs>
       <path d="M 37.25 0 
L 28.46875 0 
L 28.46875 56 
Q 25.296875 52.984375 20.140625 49.953125 
Q 14.984375 46.921875 10.890625 45.40625 
L 10.890625 53.90625 
Q 18.265625 57.375 23.78125 62.296875 
Q 29.296875 67.234375 31.59375 71.875 
L 37.25 71.875 
z
" id="ArialMT-31"/>
      </defs>
      <g style="fill:#262626;" transform="translate(236.009078 329.157812)scale(0.1 -0.1)">
       <use xlink:href="#ArialMT-31"/>
       <use x="55.615234" xlink:href="#ArialMT-30"/>
      </g>
     </g>
    </g>
    <g id="xtick_3">
     <g id="line2d_5">
      <path clip-path="url(#p7bb57c5205)" d="M 320.79437 315 
L 320.79437 43.2 
" style="fill:none;stroke:#ffffff;stroke-linecap:round;"/>
     </g>
     <g id="line2d_6"/>
     <g id="text_3">
      <!-- 20 -->
      <defs>
       <path d="M 50.34375 8.453125 
L 50.34375 0 
L 3.03125 0 
Q 2.9375 3.171875 4.046875 6.109375 
Q 5.859375 10.9375 9.828125 15.625 
Q 13.8125 20.3125 21.34375 26.46875 
Q 33.015625 36.03125 37.109375 41.625 
Q 41.21875 47.21875 41.21875 52.203125 
Q 41.21875 57.421875 37.46875 61 
Q 33.734375 64.59375 27.734375 64.59375 
Q 21.390625 64.59375 17.578125 60.78125 
Q 13.765625 56.984375 13.71875 50.25 
L 4.6875 51.171875 
Q 5.609375 61.28125 11.65625 66.578125 
Q 17.71875 71.875 27.9375 71.875 
Q 38.234375 71.875 44.234375 66.15625 
Q 50.25 60.453125 50.25 52 
Q 50.25 47.703125 48.484375 43.546875 
Q 46.734375 39.40625 42.65625 34.8125 
Q 38.578125 30.21875 29.109375 22.21875 
Q 21.1875 15.578125 18.9375 13.203125 
Q 16.703125 10.84375 15.234375 8.453125 
z
" id="ArialMT-32"/>
      </defs>
      <g style="fill:#262626;" transform="translate(315.233433 329.157812)scale(0.1 -0.1)">
       <use xlink:href="#ArialMT-32"/>
       <use x="55.615234" xlink:href="#ArialMT-30"/>
      </g>
     </g>
    </g>
    <g id="xtick_4">
     <g id="line2d_7">
      <path clip-path="url(#p7bb57c5205)" d="M 400.018725 315 
L 400.018725 43.2 
" style="fill:none;stroke:#ffffff;stroke-linecap:round;"/>
     </g>
     <g id="line2d_8"/>
     <g id="text_4">
      <!-- 30 -->
      <defs>
       <path d="M 4.203125 18.890625 
L 12.984375 20.0625 
Q 14.5 12.59375 18.140625 9.296875 
Q 21.78125 6 27 6 
Q 33.203125 6 37.46875 10.296875 
Q 41.75 14.59375 41.75 20.953125 
Q 41.75 27 37.796875 30.921875 
Q 33.84375 34.859375 27.734375 34.859375 
Q 25.25 34.859375 21.53125 33.890625 
L 22.515625 41.609375 
Q 23.390625 41.5 23.921875 41.5 
Q 29.546875 41.5 34.03125 44.421875 
Q 38.53125 47.359375 38.53125 53.46875 
Q 38.53125 58.296875 35.25 61.46875 
Q 31.984375 64.65625 26.8125 64.65625 
Q 21.6875 64.65625 18.265625 61.421875 
Q 14.84375 58.203125 13.875 51.765625 
L 5.078125 53.328125 
Q 6.6875 62.15625 12.390625 67.015625 
Q 18.109375 71.875 26.609375 71.875 
Q 32.46875 71.875 37.390625 69.359375 
Q 42.328125 66.84375 44.9375 62.5 
Q 47.5625 58.15625 47.5625 53.265625 
Q 47.5625 48.640625 45.0625 44.828125 
Q 42.578125 41.015625 37.703125 38.765625 
Q 44.046875 37.3125 47.5625 32.6875 
Q 51.078125 28.078125 51.078125 21.140625 
Q 51.078125 11.765625 44.234375 5.25 
Q 37.40625 -1.265625 26.953125 -1.265625 
Q 17.53125 -1.265625 11.296875 4.34375 
Q 5.078125 9.96875 4.203125 18.890625 
" id="ArialMT-33"/>
      </defs>
      <g style="fill:#262626;" transform="translate(394.457787 329.157812)scale(0.1 -0.1)">
       <use xlink:href="#ArialMT-33"/>
       <use x="55.615234" xlink:href="#ArialMT-30"/>
      </g>
     </g>
    </g>
    <g id="xtick_5">
     <g id="line2d_9">
      <path clip-path="url(#p7bb57c5205)" d="M 479.243079 315 
L 479.243079 43.2 
" style="fill:none;stroke:#ffffff;stroke-linecap:round;"/>
     </g>
     <g id="line2d_10"/>
     <g id="text_5">
      <!-- 40 -->
      <defs>
       <path d="M 32.328125 0 
L 32.328125 17.140625 
L 1.265625 17.140625 
L 1.265625 25.203125 
L 33.9375 71.578125 
L 41.109375 71.578125 
L 41.109375 25.203125 
L 50.78125 25.203125 
L 50.78125 17.140625 
L 41.109375 17.140625 
L 41.109375 0 
z
M 32.328125 25.203125 
L 32.328125 57.46875 
L 9.90625 25.203125 
z
" id="ArialMT-34"/>
      </defs>
      <g style="fill:#262626;" transform="translate(473.682142 329.157812)scale(0.1 -0.1)">
       <use xlink:href="#ArialMT-34"/>
       <use x="55.615234" xlink:href="#ArialMT-30"/>
      </g>
     </g>
    </g>
   </g>
   <g id="matplotlib.axis_2">
    <g id="ytick_1">
     <g id="line2d_11">
      <path clip-path="url(#p7bb57c5205)" d="M 144 315 
L 549.818182 315 
" style="fill:none;stroke:#ffffff;stroke-linecap:round;"/>
     </g>
     <g id="line2d_12"/>
     <g id="text_6">
      <!-- 0 -->
      <g style="fill:#262626;" transform="translate(131.439063 318.578906)scale(0.1 -0.1)">
       <use xlink:href="#ArialMT-30"/>
      </g>
     </g>
    </g>
    <g id="ytick_2">
     <g id="line2d_13">
      <path clip-path="url(#p7bb57c5205)" d="M 144 262.11589 
L 549.818182 262.11589 
" style="fill:none;stroke:#ffffff;stroke-linecap:round;"/>
     </g>
     <g id="line2d_14"/>
     <g id="text_7">
      <!-- 5000 -->
      <defs>
       <path d="M 4.15625 18.75 
L 13.375 19.53125 
Q 14.40625 12.796875 18.140625 9.390625 
Q 21.875 6 27.15625 6 
Q 33.5 6 37.890625 10.78125 
Q 42.28125 15.578125 42.28125 23.484375 
Q 42.28125 31 38.0625 35.34375 
Q 33.84375 39.703125 27 39.703125 
Q 22.75 39.703125 19.328125 37.765625 
Q 15.921875 35.84375 13.96875 32.765625 
L 5.71875 33.84375 
L 12.640625 70.609375 
L 48.25 70.609375 
L 48.25 62.203125 
L 19.671875 62.203125 
L 15.828125 42.96875 
Q 22.265625 47.46875 29.34375 47.46875 
Q 38.71875 47.46875 45.15625 40.96875 
Q 51.609375 34.46875 51.609375 24.265625 
Q 51.609375 14.546875 45.953125 7.46875 
Q 39.0625 -1.21875 27.15625 -1.21875 
Q 17.390625 -1.21875 11.203125 4.25 
Q 5.03125 9.71875 4.15625 18.75 
" id="ArialMT-35"/>
      </defs>
      <g style="fill:#262626;" transform="translate(114.75625 265.694796)scale(0.1 -0.1)">
       <use xlink:href="#ArialMT-35"/>
       <use x="55.615234" xlink:href="#ArialMT-30"/>
       <use x="111.230469" xlink:href="#ArialMT-30"/>
       <use x="166.845703" xlink:href="#ArialMT-30"/>
      </g>
     </g>
    </g>
    <g id="ytick_3">
     <g id="line2d_15">
      <path clip-path="url(#p7bb57c5205)" d="M 144 209.231779 
L 549.818182 209.231779 
" style="fill:none;stroke:#ffffff;stroke-linecap:round;"/>
     </g>
     <g id="line2d_16"/>
     <g id="text_8">
      <!-- 10000 -->
      <g style="fill:#262626;" transform="translate(109.195312 212.810686)scale(0.1 -0.1)">
       <use xlink:href="#ArialMT-31"/>
       <use x="55.615234" xlink:href="#ArialMT-30"/>
       <use x="111.230469" xlink:href="#ArialMT-30"/>
       <use x="166.845703" xlink:href="#ArialMT-30"/>
       <use x="222.460938" xlink:href="#ArialMT-30"/>
      </g>
     </g>
    </g>
    <g id="ytick_4">
     <g id="line2d_17">
      <path clip-path="url(#p7bb57c5205)" d="M 144 156.347669 
L 549.818182 156.347669 
" style="fill:none;stroke:#ffffff;stroke-linecap:round;"/>
     </g>
     <g id="line2d_18"/>
     <g id="text_9">
      <!-- 15000 -->
      <g style="fill:#262626;" transform="translate(109.195312 159.926575)scale(0.1 -0.1)">
       <use xlink:href="#ArialMT-31"/>
       <use x="55.615234" xlink:href="#ArialMT-35"/>
       <use x="111.230469" xlink:href="#ArialMT-30"/>
       <use x="166.845703" xlink:href="#ArialMT-30"/>
       <use x="222.460938" xlink:href="#ArialMT-30"/>
      </g>
     </g>
    </g>
    <g id="ytick_5">
     <g id="line2d_19">
      <path clip-path="url(#p7bb57c5205)" d="M 144 103.463559 
L 549.818182 103.463559 
" style="fill:none;stroke:#ffffff;stroke-linecap:round;"/>
     </g>
     <g id="line2d_20"/>
     <g id="text_10">
      <!-- 20000 -->
      <g style="fill:#262626;" transform="translate(109.195312 107.042465)scale(0.1 -0.1)">
       <use xlink:href="#ArialMT-32"/>
       <use x="55.615234" xlink:href="#ArialMT-30"/>
       <use x="111.230469" xlink:href="#ArialMT-30"/>
       <use x="166.845703" xlink:href="#ArialMT-30"/>
       <use x="222.460938" xlink:href="#ArialMT-30"/>
      </g>
     </g>
    </g>
    <g id="ytick_6">
     <g id="line2d_21">
      <path clip-path="url(#p7bb57c5205)" d="M 144 50.579449 
L 549.818182 50.579449 
" style="fill:none;stroke:#ffffff;stroke-linecap:round;"/>
     </g>
     <g id="line2d_22"/>
     <g id="text_11">
      <!-- 25000 -->
      <g style="fill:#262626;" transform="translate(109.195312 54.158355)scale(0.1 -0.1)">
       <use xlink:href="#ArialMT-32"/>
       <use x="55.615234" xlink:href="#ArialMT-35"/>
       <use x="111.230469" xlink:href="#ArialMT-30"/>
       <use x="166.845703" xlink:href="#ArialMT-30"/>
       <use x="222.460938" xlink:href="#ArialMT-30"/>
      </g>
     </g>
    </g>
    <g id="ytick_7">
     <g id="line2d_23"/>
    </g>
    <g id="ytick_8">
     <g id="line2d_24"/>
    </g>
    <g id="ytick_9">
     <g id="line2d_25"/>
    </g>
    <g id="ytick_10">
     <g id="line2d_26"/>
    </g>
    <g id="ytick_11">
     <g id="line2d_27"/>
    </g>
    <g id="ytick_12">
     <g id="line2d_28"/>
    </g>
    <g id="text_12">
     <!-- Frequency -->
     <defs>
      <path d="M 8.203125 0 
L 8.203125 71.578125 
L 56.5 71.578125 
L 56.5 63.140625 
L 17.671875 63.140625 
L 17.671875 40.96875 
L 51.265625 40.96875 
L 51.265625 32.515625 
L 17.671875 32.515625 
L 17.671875 0 
z
" id="ArialMT-46"/>
      <path d="M 6.5 0 
L 6.5 51.859375 
L 14.40625 51.859375 
L 14.40625 44 
Q 17.4375 49.515625 20 51.265625 
Q 22.5625 53.03125 25.640625 53.03125 
Q 30.078125 53.03125 34.671875 50.203125 
L 31.640625 42.046875 
Q 28.421875 43.953125 25.203125 43.953125 
Q 22.3125 43.953125 20.015625 42.21875 
Q 17.71875 40.484375 16.75 37.40625 
Q 15.28125 32.71875 15.28125 27.15625 
L 15.28125 0 
z
" id="ArialMT-72"/>
      <path d="M 42.09375 16.703125 
L 51.171875 15.578125 
Q 49.03125 7.625 43.21875 3.21875 
Q 37.40625 -1.171875 28.375 -1.171875 
Q 17 -1.171875 10.328125 5.828125 
Q 3.65625 12.84375 3.65625 25.484375 
Q 3.65625 38.578125 10.390625 45.796875 
Q 17.140625 53.03125 27.875 53.03125 
Q 38.28125 53.03125 44.875 45.953125 
Q 51.46875 38.875 51.46875 26.03125 
Q 51.46875 25.25 51.421875 23.6875 
L 12.75 23.6875 
Q 13.234375 15.140625 17.578125 10.59375 
Q 21.921875 6.0625 28.421875 6.0625 
Q 33.25 6.0625 36.671875 8.59375 
Q 40.09375 11.140625 42.09375 16.703125 
M 13.234375 30.90625 
L 42.1875 30.90625 
Q 41.609375 37.453125 38.875 40.71875 
Q 34.671875 45.796875 27.984375 45.796875 
Q 21.921875 45.796875 17.796875 41.75 
Q 13.671875 37.703125 13.234375 30.90625 
" id="ArialMT-65"/>
      <path d="M 39.65625 -19.875 
L 39.65625 5.515625 
Q 37.59375 2.640625 33.90625 0.734375 
Q 30.21875 -1.171875 26.078125 -1.171875 
Q 16.84375 -1.171875 10.171875 6.203125 
Q 3.515625 13.578125 3.515625 26.421875 
Q 3.515625 34.234375 6.21875 40.421875 
Q 8.9375 46.625 14.078125 49.828125 
Q 19.234375 53.03125 25.390625 53.03125 
Q 35.015625 53.03125 40.53125 44.921875 
L 40.53125 51.859375 
L 48.4375 51.859375 
L 48.4375 -19.875 
z
M 12.546875 26.078125 
Q 12.546875 16.0625 16.75 11.0625 
Q 20.953125 6.0625 26.8125 6.0625 
Q 32.421875 6.0625 36.46875 10.8125 
Q 40.53125 15.578125 40.53125 25.296875 
Q 40.53125 35.640625 36.25 40.859375 
Q 31.984375 46.09375 26.21875 46.09375 
Q 20.515625 46.09375 16.53125 41.234375 
Q 12.546875 36.375 12.546875 26.078125 
" id="ArialMT-71"/>
      <path d="M 40.578125 0 
L 40.578125 7.625 
Q 34.515625 -1.171875 24.125 -1.171875 
Q 19.53125 -1.171875 15.546875 0.578125 
Q 11.578125 2.34375 9.640625 5 
Q 7.71875 7.671875 6.9375 11.53125 
Q 6.390625 14.109375 6.390625 19.734375 
L 6.390625 51.859375 
L 15.1875 51.859375 
L 15.1875 23.09375 
Q 15.1875 16.21875 15.71875 13.8125 
Q 16.546875 10.359375 19.234375 8.375 
Q 21.921875 6.390625 25.875 6.390625 
Q 29.828125 6.390625 33.296875 8.421875 
Q 36.765625 10.453125 38.203125 13.9375 
Q 39.65625 17.4375 39.65625 24.078125 
L 39.65625 51.859375 
L 48.4375 51.859375 
L 48.4375 0 
z
" id="ArialMT-75"/>
      <path d="M 6.59375 0 
L 6.59375 51.859375 
L 14.5 51.859375 
L 14.5 44.484375 
Q 20.21875 53.03125 31 53.03125 
Q 35.6875 53.03125 39.625 51.34375 
Q 43.5625 49.65625 45.515625 46.921875 
Q 47.46875 44.1875 48.25 40.4375 
Q 48.734375 37.984375 48.734375 31.890625 
L 48.734375 0 
L 39.9375 0 
L 39.9375 31.546875 
Q 39.9375 36.921875 38.90625 39.578125 
Q 37.890625 42.234375 35.28125 43.8125 
Q 32.671875 45.40625 29.15625 45.40625 
Q 23.53125 45.40625 19.453125 41.84375 
Q 15.375 38.28125 15.375 28.328125 
L 15.375 0 
z
" id="ArialMT-6e"/>
      <path d="M 40.4375 19 
L 49.078125 17.875 
Q 47.65625 8.9375 41.8125 3.875 
Q 35.984375 -1.171875 27.484375 -1.171875 
Q 16.84375 -1.171875 10.375 5.78125 
Q 3.90625 12.75 3.90625 25.734375 
Q 3.90625 34.125 6.6875 40.421875 
Q 9.46875 46.734375 15.15625 49.875 
Q 20.84375 53.03125 27.546875 53.03125 
Q 35.984375 53.03125 41.359375 48.75 
Q 46.734375 44.484375 48.25 36.625 
L 39.703125 35.296875 
Q 38.484375 40.53125 35.375 43.15625 
Q 32.28125 45.796875 27.875 45.796875 
Q 21.234375 45.796875 17.078125 41.03125 
Q 12.9375 36.28125 12.9375 25.984375 
Q 12.9375 15.53125 16.9375 10.796875 
Q 20.953125 6.0625 27.390625 6.0625 
Q 32.5625 6.0625 36.03125 9.234375 
Q 39.5 12.40625 40.4375 19 
" id="ArialMT-63"/>
      <path d="M 6.203125 -19.96875 
L 5.21875 -11.71875 
Q 8.109375 -12.5 10.25 -12.5 
Q 13.1875 -12.5 14.9375 -11.515625 
Q 16.703125 -10.546875 17.828125 -8.796875 
Q 18.65625 -7.46875 20.515625 -2.25 
Q 20.75 -1.515625 21.296875 -0.09375 
L 1.609375 51.859375 
L 11.078125 51.859375 
L 21.875 21.828125 
Q 23.96875 16.109375 25.640625 9.8125 
Q 27.15625 15.875 29.25 21.625 
L 40.328125 51.859375 
L 49.125 51.859375 
L 29.390625 -0.875 
Q 26.21875 -9.421875 24.46875 -12.640625 
Q 22.125 -17 19.09375 -19.015625 
Q 16.0625 -21.046875 11.859375 -21.046875 
Q 9.328125 -21.046875 6.203125 -19.96875 
" id="ArialMT-79"/>
     </defs>
     <g style="fill:#262626;" transform="translate(102.880156 205.083203)rotate(-90)scale(0.11 -0.11)">
      <use xlink:href="#ArialMT-46"/>
      <use x="61.083984" xlink:href="#ArialMT-72"/>
      <use x="94.384766" xlink:href="#ArialMT-65"/>
      <use x="150" xlink:href="#ArialMT-71"/>
      <use x="205.615234" xlink:href="#ArialMT-75"/>
      <use x="261.230469" xlink:href="#ArialMT-65"/>
      <use x="316.845703" xlink:href="#ArialMT-6e"/>
      <use x="372.460938" xlink:href="#ArialMT-63"/>
      <use x="422.460938" xlink:href="#ArialMT-79"/>
     </g>
    </g>
   </g>
   <g id="patch_3">
    <path clip-path="url(#p7bb57c5205)" d="M 162.446281 315 
L 166.135537 315 
L 166.135537 70.886947 
L 162.446281 70.886947 
z
" style="fill:#4c72b0;"/>
   </g>
   <g id="patch_4">
    <path clip-path="url(#p7bb57c5205)" d="M 166.135537 315 
L 169.824793 315 
L 169.824793 56.142857 
L 166.135537 56.142857 
z
" style="fill:#4c72b0;"/>
   </g>
   <g id="patch_5">
    <path clip-path="url(#p7bb57c5205)" d="M 169.824793 315 
L 173.51405 315 
L 173.51405 146.796799 
L 169.824793 146.796799 
z
" style="fill:#4c72b0;"/>
   </g>
   <g id="patch_6">
    <path clip-path="url(#p7bb57c5205)" d="M 173.51405 315 
L 177.203306 315 
L 177.203306 208.660631 
L 173.51405 208.660631 
z
" style="fill:#4c72b0;"/>
   </g>
   <g id="patch_7">
    <path clip-path="url(#p7bb57c5205)" d="M 177.203306 315 
L 180.892562 315 
L 180.892562 243.54299 
L 177.203306 243.54299 
z
" style="fill:#4c72b0;"/>
   </g>
   <g id="patch_8">
    <path clip-path="url(#p7bb57c5205)" d="M 180.892562 315 
L 184.581818 315 
L 184.581818 265.77547 
L 180.892562 265.77547 
z
" style="fill:#4c72b0;"/>
   </g>
   <g id="patch_9">
    <path clip-path="url(#p7bb57c5205)" d="M 184.581818 315 
L 188.271074 315 
L 188.271074 280.350331 
L 184.581818 280.350331 
z
" style="fill:#4c72b0;"/>
   </g>
   <g id="patch_10">
    <path clip-path="url(#p7bb57c5205)" d="M 188.271074 315 
L 191.960331 315 
L 191.960331 289.657934 
L 188.271074 289.657934 
z
" style="fill:#4c72b0;"/>
   </g>
   <g id="patch_11">
    <path clip-path="url(#p7bb57c5205)" d="M 191.960331 315 
L 195.649587 315 
L 195.649587 296.511715 
L 191.960331 296.511715 
z
" style="fill:#4c72b0;"/>
   </g>
   <g id="patch_12">
    <path clip-path="url(#p7bb57c5205)" d="M 195.649587 315 
L 199.338843 315 
L 199.338843 300.964557 
L 195.649587 300.964557 
z
" style="fill:#4c72b0;"/>
   </g>
   <g id="patch_13">
    <path clip-path="url(#p7bb57c5205)" d="M 199.338843 315 
L 203.028099 315 
L 203.028099 303.45011 
L 199.338843 303.45011 
z
" style="fill:#4c72b0;"/>
   </g>
   <g id="patch_14">
    <path clip-path="url(#p7bb57c5205)" d="M 203.028099 315 
L 206.717355 315 
L 206.717355 305.819318 
L 203.028099 305.819318 
z
" style="fill:#4c72b0;"/>
   </g>
   <g id="patch_15">
    <path clip-path="url(#p7bb57c5205)" d="M 206.717355 315 
L 210.406612 315 
L 210.406612 307.765454 
L 206.717355 307.765454 
z
" style="fill:#4c72b0;"/>
   </g>
   <g id="patch_16">
    <path clip-path="url(#p7bb57c5205)" d="M 210.406612 315 
L 214.095868 315 
L 214.095868 308.706791 
L 210.406612 308.706791 
z
" style="fill:#4c72b0;"/>
   </g>
   <g id="patch_17">
    <path clip-path="url(#p7bb57c5205)" d="M 214.095868 315 
L 217.785124 315 
L 217.785124 310.081778 
L 214.095868 310.081778 
z
" style="fill:#4c72b0;"/>
   </g>
   <g id="patch_18">
    <path clip-path="url(#p7bb57c5205)" d="M 217.785124 315 
L 221.47438 315 
L 221.47438 311.224075 
L 217.785124 311.224075 
z
" style="fill:#4c72b0;"/>
   </g>
   <g id="patch_19">
    <path clip-path="url(#p7bb57c5205)" d="M 221.47438 315 
L 225.163636 315 
L 225.163636 311.858684 
L 221.47438 311.858684 
z
" style="fill:#4c72b0;"/>
   </g>
   <g id="patch_20">
    <path clip-path="url(#p7bb57c5205)" d="M 225.163636 315 
L 228.852893 315 
L 228.852893 312.250026 
L 225.163636 312.250026 
z
" style="fill:#4c72b0;"/>
   </g>
   <g id="patch_21">
    <path clip-path="url(#p7bb57c5205)" d="M 228.852893 315 
L 232.542149 315 
L 232.542149 312.96925 
L 228.852893 312.96925 
z
" style="fill:#4c72b0;"/>
   </g>
   <g id="patch_22">
    <path clip-path="url(#p7bb57c5205)" d="M 232.542149 315 
L 236.231405 315 
L 236.231405 313.032711 
L 232.542149 313.032711 
z
" style="fill:#4c72b0;"/>
   </g>
   <g id="patch_23">
    <path clip-path="url(#p7bb57c5205)" d="M 236.231405 315 
L 239.920661 315 
L 239.920661 313.371169 
L 236.231405 313.371169 
z
" style="fill:#4c72b0;"/>
   </g>
   <g id="patch_24">
    <path clip-path="url(#p7bb57c5205)" d="M 239.920661 315 
L 243.609917 315 
L 243.609917 313.688474 
L 239.920661 313.688474 
z
" style="fill:#4c72b0;"/>
   </g>
   <g id="patch_25">
    <path clip-path="url(#p7bb57c5205)" d="M 243.609917 315 
L 247.299174 315 
L 247.299174 313.709628 
L 243.609917 313.709628 
z
" style="fill:#4c72b0;"/>
   </g>
   <g id="patch_26">
    <path clip-path="url(#p7bb57c5205)" d="M 247.299174 315 
L 250.98843 315 
L 250.98843 313.86828 
L 247.299174 313.86828 
z
" style="fill:#4c72b0;"/>
   </g>
   <g id="patch_27">
    <path clip-path="url(#p7bb57c5205)" d="M 250.98843 315 
L 254.677686 315 
L 254.677686 313.910587 
L 250.98843 313.910587 
z
" style="fill:#4c72b0;"/>
   </g>
   <g id="patch_28">
    <path clip-path="url(#p7bb57c5205)" d="M 254.677686 315 
L 258.366942 315 
L 258.366942 314.164431 
L 254.677686 314.164431 
z
" style="fill:#4c72b0;"/>
   </g>
   <g id="patch_29">
    <path clip-path="url(#p7bb57c5205)" d="M 258.366942 315 
L 262.056198 315 
L 262.056198 314.196162 
L 258.366942 314.196162 
z
" style="fill:#4c72b0;"/>
   </g>
   <g id="patch_30">
    <path clip-path="url(#p7bb57c5205)" d="M 262.056198 315 
L 265.745455 315 
L 265.745455 314.502889 
L 262.056198 314.502889 
z
" style="fill:#4c72b0;"/>
   </g>
   <g id="patch_31">
    <path clip-path="url(#p7bb57c5205)" d="M 265.745455 315 
L 269.434711 315 
L 269.434711 314.576927 
L 265.745455 314.576927 
z
" style="fill:#4c72b0;"/>
   </g>
   <g id="patch_32">
    <path clip-path="url(#p7bb57c5205)" d="M 269.434711 315 
L 273.123967 315 
L 273.123967 314.471159 
L 269.434711 314.471159 
z
" style="fill:#4c72b0;"/>
   </g>
   <g id="patch_33">
    <path clip-path="url(#p7bb57c5205)" d="M 273.123967 315 
L 276.813223 315 
L 276.813223 314.471159 
L 273.123967 314.471159 
z
" style="fill:#4c72b0;"/>
   </g>
   <g id="patch_34">
    <path clip-path="url(#p7bb57c5205)" d="M 276.813223 315 
L 280.502479 315 
L 280.502479 314.598081 
L 276.813223 314.598081 
z
" style="fill:#4c72b0;"/>
   </g>
   <g id="patch_35">
    <path clip-path="url(#p7bb57c5205)" d="M 280.502479 315 
L 284.191736 315 
L 284.191736 314.555773 
L 280.502479 314.555773 
z
" style="fill:#4c72b0;"/>
   </g>
   <g id="patch_36">
    <path clip-path="url(#p7bb57c5205)" d="M 284.191736 315 
L 287.880992 315 
L 287.880992 314.682695 
L 284.191736 314.682695 
z
" style="fill:#4c72b0;"/>
   </g>
   <g id="patch_37">
    <path clip-path="url(#p7bb57c5205)" d="M 287.880992 315 
L 291.570248 315 
L 291.570248 314.809617 
L 287.880992 314.809617 
z
" style="fill:#4c72b0;"/>
   </g>
   <g id="patch_38">
    <path clip-path="url(#p7bb57c5205)" d="M 291.570248 315 
L 295.259504 315 
L 295.259504 314.809617 
L 291.570248 314.809617 
z
" style="fill:#4c72b0;"/>
   </g>
   <g id="patch_39">
    <path clip-path="url(#p7bb57c5205)" d="M 295.259504 315 
L 298.94876 315 
L 298.94876 314.830771 
L 295.259504 314.830771 
z
" style="fill:#4c72b0;"/>
   </g>
   <g id="patch_40">
    <path clip-path="url(#p7bb57c5205)" d="M 298.94876 315 
L 302.638017 315 
L 302.638017 314.873078 
L 298.94876 314.873078 
z
" style="fill:#4c72b0;"/>
   </g>
   <g id="patch_41">
    <path clip-path="url(#p7bb57c5205)" d="M 302.638017 315 
L 306.327273 315 
L 306.327273 314.873078 
L 302.638017 314.873078 
z
" style="fill:#4c72b0;"/>
   </g>
   <g id="patch_42">
    <path clip-path="url(#p7bb57c5205)" d="M 306.327273 315 
L 310.016529 315 
L 310.016529 314.894232 
L 306.327273 314.894232 
z
" style="fill:#4c72b0;"/>
   </g>
   <g id="patch_43">
    <path clip-path="url(#p7bb57c5205)" d="M 310.016529 315 
L 313.705785 315 
L 313.705785 314.904809 
L 310.016529 314.904809 
z
" style="fill:#4c72b0;"/>
   </g>
   <g id="patch_44">
    <path clip-path="url(#p7bb57c5205)" d="M 313.705785 315 
L 317.395041 315 
L 317.395041 314.851924 
L 313.705785 314.851924 
z
" style="fill:#4c72b0;"/>
   </g>
   <g id="patch_45">
    <path clip-path="url(#p7bb57c5205)" d="M 317.395041 315 
L 321.084298 315 
L 321.084298 314.851924 
L 317.395041 314.851924 
z
" style="fill:#4c72b0;"/>
   </g>
   <g id="patch_46">
    <path clip-path="url(#p7bb57c5205)" d="M 321.084298 315 
L 324.773554 315 
L 324.773554 314.862501 
L 321.084298 314.862501 
z
" style="fill:#4c72b0;"/>
   </g>
   <g id="patch_47">
    <path clip-path="url(#p7bb57c5205)" d="M 324.773554 315 
L 328.46281 315 
L 328.46281 314.915385 
L 324.773554 314.915385 
z
" style="fill:#4c72b0;"/>
   </g>
   <g id="patch_48">
    <path clip-path="url(#p7bb57c5205)" d="M 328.46281 315 
L 332.152066 315 
L 332.152066 314.904809 
L 328.46281 314.904809 
z
" style="fill:#4c72b0;"/>
   </g>
   <g id="patch_49">
    <path clip-path="url(#p7bb57c5205)" d="M 332.152066 315 
L 335.841322 315 
L 335.841322 314.873078 
L 332.152066 314.873078 
z
" style="fill:#4c72b0;"/>
   </g>
   <g id="patch_50">
    <path clip-path="url(#p7bb57c5205)" d="M 335.841322 315 
L 339.530579 315 
L 339.530579 314.936539 
L 335.841322 314.936539 
z
" style="fill:#4c72b0;"/>
   </g>
   <g id="patch_51">
    <path clip-path="url(#p7bb57c5205)" d="M 339.530579 315 
L 343.219835 315 
L 343.219835 314.925962 
L 339.530579 314.925962 
z
" style="fill:#4c72b0;"/>
   </g>
   <g id="patch_52">
    <path clip-path="url(#p7bb57c5205)" d="M 343.219835 315 
L 346.909091 315 
L 346.909091 314.915385 
L 343.219835 314.915385 
z
" style="fill:#4c72b0;"/>
   </g>
   <g id="patch_53">
    <path clip-path="url(#p7bb57c5205)" d="M 346.909091 315 
L 350.598347 315 
L 350.598347 314.947116 
L 346.909091 314.947116 
z
" style="fill:#4c72b0;"/>
   </g>
   <g id="patch_54">
    <path clip-path="url(#p7bb57c5205)" d="M 350.598347 315 
L 354.287603 315 
L 354.287603 314.947116 
L 350.598347 314.947116 
z
" style="fill:#4c72b0;"/>
   </g>
   <g id="patch_55">
    <path clip-path="url(#p7bb57c5205)" d="M 354.287603 315 
L 357.97686 315 
L 357.97686 314.978846 
L 354.287603 314.978846 
z
" style="fill:#4c72b0;"/>
   </g>
   <g id="patch_56">
    <path clip-path="url(#p7bb57c5205)" d="M 357.97686 315 
L 361.666116 315 
L 361.666116 314.947116 
L 357.97686 314.947116 
z
" style="fill:#4c72b0;"/>
   </g>
   <g id="patch_57">
    <path clip-path="url(#p7bb57c5205)" d="M 361.666116 315 
L 365.355372 315 
L 365.355372 314.947116 
L 361.666116 314.947116 
z
" style="fill:#4c72b0;"/>
   </g>
   <g id="patch_58">
    <path clip-path="url(#p7bb57c5205)" d="M 365.355372 315 
L 369.044628 315 
L 369.044628 314.96827 
L 365.355372 314.96827 
z
" style="fill:#4c72b0;"/>
   </g>
   <g id="patch_59">
    <path clip-path="url(#p7bb57c5205)" d="M 369.044628 315 
L 372.733884 315 
L 372.733884 314.947116 
L 369.044628 314.947116 
z
" style="fill:#4c72b0;"/>
   </g>
   <g id="patch_60">
    <path clip-path="url(#p7bb57c5205)" d="M 372.733884 315 
L 376.42314 315 
L 376.42314 314.96827 
L 372.733884 314.96827 
z
" style="fill:#4c72b0;"/>
   </g>
   <g id="patch_61">
    <path clip-path="url(#p7bb57c5205)" d="M 376.42314 315 
L 380.112397 315 
L 380.112397 314.989423 
L 376.42314 314.989423 
z
" style="fill:#4c72b0;"/>
   </g>
   <g id="patch_62">
    <path clip-path="url(#p7bb57c5205)" d="M 380.112397 315 
L 383.801653 315 
L 383.801653 314.978846 
L 380.112397 314.978846 
z
" style="fill:#4c72b0;"/>
   </g>
   <g id="patch_63">
    <path clip-path="url(#p7bb57c5205)" d="M 383.801653 315 
L 387.490909 315 
L 387.490909 314.978846 
L 383.801653 314.978846 
z
" style="fill:#4c72b0;"/>
   </g>
   <g id="patch_64">
    <path clip-path="url(#p7bb57c5205)" d="M 387.490909 315 
L 391.180165 315 
L 391.180165 314.989423 
L 387.490909 314.989423 
z
" style="fill:#4c72b0;"/>
   </g>
   <g id="patch_65">
    <path clip-path="url(#p7bb57c5205)" d="M 391.180165 315 
L 394.869421 315 
L 394.869421 314.947116 
L 391.180165 314.947116 
z
" style="fill:#4c72b0;"/>
   </g>
   <g id="patch_66">
    <path clip-path="url(#p7bb57c5205)" d="M 394.869421 315 
L 398.558678 315 
L 398.558678 314.989423 
L 394.869421 314.989423 
z
" style="fill:#4c72b0;"/>
   </g>
   <g id="patch_67">
    <path clip-path="url(#p7bb57c5205)" d="M 398.558678 315 
L 402.247934 315 
L 402.247934 314.957693 
L 398.558678 314.957693 
z
" style="fill:#4c72b0;"/>
   </g>
   <g id="patch_68">
    <path clip-path="url(#p7bb57c5205)" d="M 402.247934 315 
L 405.93719 315 
L 405.93719 314.989423 
L 402.247934 314.989423 
z
" style="fill:#4c72b0;"/>
   </g>
   <g id="patch_69">
    <path clip-path="url(#p7bb57c5205)" d="M 405.93719 315 
L 409.626446 315 
L 409.626446 314.957693 
L 405.93719 314.957693 
z
" style="fill:#4c72b0;"/>
   </g>
   <g id="patch_70">
    <path clip-path="url(#p7bb57c5205)" d="M 409.626446 315 
L 413.315702 315 
L 413.315702 314.989423 
L 409.626446 314.989423 
z
" style="fill:#4c72b0;"/>
   </g>
   <g id="patch_71">
    <path clip-path="url(#p7bb57c5205)" d="M 413.315702 315 
L 417.004959 315 
L 417.004959 315 
L 413.315702 315 
z
" style="fill:#4c72b0;"/>
   </g>
   <g id="patch_72">
    <path clip-path="url(#p7bb57c5205)" d="M 417.004959 315 
L 420.694215 315 
L 420.694215 314.989423 
L 417.004959 314.989423 
z
" style="fill:#4c72b0;"/>
   </g>
   <g id="patch_73">
    <path clip-path="url(#p7bb57c5205)" d="M 420.694215 315 
L 424.383471 315 
L 424.383471 315 
L 420.694215 315 
z
" style="fill:#4c72b0;"/>
   </g>
   <g id="patch_74">
    <path clip-path="url(#p7bb57c5205)" d="M 424.383471 315 
L 428.072727 315 
L 428.072727 314.989423 
L 424.383471 314.989423 
z
" style="fill:#4c72b0;"/>
   </g>
   <g id="patch_75">
    <path clip-path="url(#p7bb57c5205)" d="M 428.072727 315 
L 431.761983 315 
L 431.761983 314.989423 
L 428.072727 314.989423 
z
" style="fill:#4c72b0;"/>
   </g>
   <g id="patch_76">
    <path clip-path="url(#p7bb57c5205)" d="M 431.761983 315 
L 435.45124 315 
L 435.45124 314.96827 
L 431.761983 314.96827 
z
" style="fill:#4c72b0;"/>
   </g>
   <g id="patch_77">
    <path clip-path="url(#p7bb57c5205)" d="M 435.45124 315 
L 439.140496 315 
L 439.140496 315 
L 435.45124 315 
z
" style="fill:#4c72b0;"/>
   </g>
   <g id="patch_78">
    <path clip-path="url(#p7bb57c5205)" d="M 439.140496 315 
L 442.829752 315 
L 442.829752 315 
L 439.140496 315 
z
" style="fill:#4c72b0;"/>
   </g>
   <g id="patch_79">
    <path clip-path="url(#p7bb57c5205)" d="M 442.829752 315 
L 446.519008 315 
L 446.519008 315 
L 442.829752 315 
z
" style="fill:#4c72b0;"/>
   </g>
   <g id="patch_80">
    <path clip-path="url(#p7bb57c5205)" d="M 446.519008 315 
L 450.208264 315 
L 450.208264 315 
L 446.519008 315 
z
" style="fill:#4c72b0;"/>
   </g>
   <g id="patch_81">
    <path clip-path="url(#p7bb57c5205)" d="M 450.208264 315 
L 453.897521 315 
L 453.897521 314.989423 
L 450.208264 314.989423 
z
" style="fill:#4c72b0;"/>
   </g>
   <g id="patch_82">
    <path clip-path="url(#p7bb57c5205)" d="M 453.897521 315 
L 457.586777 315 
L 457.586777 315 
L 453.897521 315 
z
" style="fill:#4c72b0;"/>
   </g>
   <g id="patch_83">
    <path clip-path="url(#p7bb57c5205)" d="M 457.586777 315 
L 461.276033 315 
L 461.276033 315 
L 457.586777 315 
z
" style="fill:#4c72b0;"/>
   </g>
   <g id="patch_84">
    <path clip-path="url(#p7bb57c5205)" d="M 461.276033 315 
L 464.965289 315 
L 464.965289 315 
L 461.276033 315 
z
" style="fill:#4c72b0;"/>
   </g>
   <g id="patch_85">
    <path clip-path="url(#p7bb57c5205)" d="M 464.965289 315 
L 468.654545 315 
L 468.654545 315 
L 464.965289 315 
z
" style="fill:#4c72b0;"/>
   </g>
   <g id="patch_86">
    <path clip-path="url(#p7bb57c5205)" d="M 468.654545 315 
L 472.343802 315 
L 472.343802 315 
L 468.654545 315 
z
" style="fill:#4c72b0;"/>
   </g>
   <g id="patch_87">
    <path clip-path="url(#p7bb57c5205)" d="M 472.343802 315 
L 476.033058 315 
L 476.033058 315 
L 472.343802 315 
z
" style="fill:#4c72b0;"/>
   </g>
   <g id="patch_88">
    <path clip-path="url(#p7bb57c5205)" d="M 476.033058 315 
L 479.722314 315 
L 479.722314 315 
L 476.033058 315 
z
" style="fill:#4c72b0;"/>
   </g>
   <g id="patch_89">
    <path clip-path="url(#p7bb57c5205)" d="M 479.722314 315 
L 483.41157 315 
L 483.41157 315 
L 479.722314 315 
z
" style="fill:#4c72b0;"/>
   </g>
   <g id="patch_90">
    <path clip-path="url(#p7bb57c5205)" d="M 483.41157 315 
L 487.100826 315 
L 487.100826 314.989423 
L 483.41157 314.989423 
z
" style="fill:#4c72b0;"/>
   </g>
   <g id="patch_91">
    <path clip-path="url(#p7bb57c5205)" d="M 487.100826 315 
L 490.790083 315 
L 490.790083 314.989423 
L 487.100826 314.989423 
z
" style="fill:#4c72b0;"/>
   </g>
   <g id="patch_92">
    <path clip-path="url(#p7bb57c5205)" d="M 490.790083 315 
L 494.479339 315 
L 494.479339 314.989423 
L 490.790083 314.989423 
z
" style="fill:#4c72b0;"/>
   </g>
   <g id="patch_93">
    <path clip-path="url(#p7bb57c5205)" d="M 494.479339 315 
L 498.168595 315 
L 498.168595 315 
L 494.479339 315 
z
" style="fill:#4c72b0;"/>
   </g>
   <g id="patch_94">
    <path clip-path="url(#p7bb57c5205)" d="M 498.168595 315 
L 501.857851 315 
L 501.857851 315 
L 498.168595 315 
z
" style="fill:#4c72b0;"/>
   </g>
   <g id="patch_95">
    <path clip-path="url(#p7bb57c5205)" d="M 501.857851 315 
L 505.547107 315 
L 505.547107 315 
L 501.857851 315 
z
" style="fill:#4c72b0;"/>
   </g>
   <g id="patch_96">
    <path clip-path="url(#p7bb57c5205)" d="M 505.547107 315 
L 509.236364 315 
L 509.236364 315 
L 505.547107 315 
z
" style="fill:#4c72b0;"/>
   </g>
   <g id="patch_97">
    <path clip-path="url(#p7bb57c5205)" d="M 509.236364 315 
L 512.92562 315 
L 512.92562 314.989423 
L 509.236364 314.989423 
z
" style="fill:#4c72b0;"/>
   </g>
   <g id="patch_98">
    <path clip-path="url(#p7bb57c5205)" d="M 512.92562 315 
L 516.614876 315 
L 516.614876 315 
L 512.92562 315 
z
" style="fill:#4c72b0;"/>
   </g>
   <g id="patch_99">
    <path clip-path="url(#p7bb57c5205)" d="M 516.614876 315 
L 520.304132 315 
L 520.304132 315 
L 516.614876 315 
z
" style="fill:#4c72b0;"/>
   </g>
   <g id="patch_100">
    <path clip-path="url(#p7bb57c5205)" d="M 520.304132 315 
L 523.993388 315 
L 523.993388 314.989423 
L 520.304132 314.989423 
z
" style="fill:#4c72b0;"/>
   </g>
   <g id="patch_101">
    <path clip-path="url(#p7bb57c5205)" d="M 523.993388 315 
L 527.682645 315 
L 527.682645 315 
L 523.993388 315 
z
" style="fill:#4c72b0;"/>
   </g>
   <g id="patch_102">
    <path clip-path="url(#p7bb57c5205)" d="M 527.682645 315 
L 531.371901 315 
L 531.371901 314.989423 
L 527.682645 314.989423 
z
" style="fill:#4c72b0;"/>
   </g>
   <g id="line2d_29">
    <path clip-path="url(#p7bb57c5205)" d="M 166.373073 315 
L 166.373073 82.309915 
" style="fill:none;stroke:#ff0000;stroke-linecap:round;stroke-width:1.75;"/>
   </g>
   <g id="line2d_30">
    <path clip-path="url(#p7bb57c5205)" d="M 170.286243 315 
L 170.286243 82.309915 
" style="fill:none;stroke:#ff0000;stroke-linecap:round;stroke-width:1.75;"/>
   </g>
   <g id="line2d_31">
    <path clip-path="url(#p7bb57c5205)" d="M 177.906181 315 
L 177.906181 82.309915 
" style="fill:none;stroke:#ff0000;stroke-linecap:round;stroke-width:1.75;"/>
   </g>
   <g id="patch_103">
    <path d="M 144 315 
L 144 43.2 
" style="fill:none;"/>
   </g>
   <g id="patch_104">
    <path d="M 549.818182 315 
L 549.818182 43.2 
" style="fill:none;"/>
   </g>
   <g id="patch_105">
    <path d="M 144 315 
L 549.818182 315 
" style="fill:none;"/>
   </g>
   <g id="patch_106">
    <path d="M 144 43.2 
L 549.818182 43.2 
" style="fill:none;"/>
   </g>
  </g>
  <g id="axes_2">
   <g id="patch_107">
    <path d="M 630.981818 315 
L 1036.8 315 
L 1036.8 43.2 
L 630.981818 43.2 
z
" style="fill:#eaeaf2;"/>
   </g>
   <g id="matplotlib.axis_3">
    <g id="xtick_6">
     <g id="line2d_32">
      <path clip-path="url(#pd1efb56416)" d="M 649.327479 315 
L 649.327479 43.2 
" style="fill:none;stroke:#ffffff;stroke-linecap:round;"/>
     </g>
     <g id="line2d_33"/>
     <g id="text_13">
      <!-- 0 -->
      <g style="fill:#262626;" transform="translate(646.54701 329.157812)scale(0.1 -0.1)">
       <use xlink:href="#ArialMT-30"/>
      </g>
     </g>
    </g>
    <g id="xtick_7">
     <g id="line2d_34">
      <path clip-path="url(#pd1efb56416)" d="M 728.551834 315 
L 728.551834 43.2 
" style="fill:none;stroke:#ffffff;stroke-linecap:round;"/>
     </g>
     <g id="line2d_35"/>
     <g id="text_14">
      <!-- 10 -->
      <g style="fill:#262626;" transform="translate(722.990896 329.157812)scale(0.1 -0.1)">
       <use xlink:href="#ArialMT-31"/>
       <use x="55.615234" xlink:href="#ArialMT-30"/>
      </g>
     </g>
    </g>
    <g id="xtick_8">
     <g id="line2d_36">
      <path clip-path="url(#pd1efb56416)" d="M 807.776188 315 
L 807.776188 43.2 
" style="fill:none;stroke:#ffffff;stroke-linecap:round;"/>
     </g>
     <g id="line2d_37"/>
     <g id="text_15">
      <!-- 20 -->
      <g style="fill:#262626;" transform="translate(802.215251 329.157812)scale(0.1 -0.1)">
       <use xlink:href="#ArialMT-32"/>
       <use x="55.615234" xlink:href="#ArialMT-30"/>
      </g>
     </g>
    </g>
    <g id="xtick_9">
     <g id="line2d_38">
      <path clip-path="url(#pd1efb56416)" d="M 887.000543 315 
L 887.000543 43.2 
" style="fill:none;stroke:#ffffff;stroke-linecap:round;"/>
     </g>
     <g id="line2d_39"/>
     <g id="text_16">
      <!-- 30 -->
      <g style="fill:#262626;" transform="translate(881.439605 329.157812)scale(0.1 -0.1)">
       <use xlink:href="#ArialMT-33"/>
       <use x="55.615234" xlink:href="#ArialMT-30"/>
      </g>
     </g>
    </g>
    <g id="xtick_10">
     <g id="line2d_40">
      <path clip-path="url(#pd1efb56416)" d="M 966.224898 315 
L 966.224898 43.2 
" style="fill:none;stroke:#ffffff;stroke-linecap:round;"/>
     </g>
     <g id="line2d_41"/>
     <g id="text_17">
      <!-- 40 -->
      <g style="fill:#262626;" transform="translate(960.66396 329.157812)scale(0.1 -0.1)">
       <use xlink:href="#ArialMT-34"/>
       <use x="55.615234" xlink:href="#ArialMT-30"/>
      </g>
     </g>
    </g>
   </g>
   <g id="matplotlib.axis_4">
    <g id="ytick_13">
     <g id="line2d_42">
      <path clip-path="url(#pd1efb56416)" d="M 630.981818 315 
L 1036.8 315 
" style="fill:none;stroke:#ffffff;stroke-linecap:round;"/>
     </g>
     <g id="line2d_43"/>
    </g>
    <g id="ytick_14">
     <g id="line2d_44">
      <path clip-path="url(#pd1efb56416)" d="M 630.981818 262.11589 
L 1036.8 262.11589 
" style="fill:none;stroke:#ffffff;stroke-linecap:round;"/>
     </g>
     <g id="line2d_45"/>
    </g>
    <g id="ytick_15">
     <g id="line2d_46">
      <path clip-path="url(#pd1efb56416)" d="M 630.981818 209.231779 
L 1036.8 209.231779 
" style="fill:none;stroke:#ffffff;stroke-linecap:round;"/>
     </g>
     <g id="line2d_47"/>
    </g>
    <g id="ytick_16">
     <g id="line2d_48">
      <path clip-path="url(#pd1efb56416)" d="M 630.981818 156.347669 
L 1036.8 156.347669 
" style="fill:none;stroke:#ffffff;stroke-linecap:round;"/>
     </g>
     <g id="line2d_49"/>
    </g>
    <g id="ytick_17">
     <g id="line2d_50">
      <path clip-path="url(#pd1efb56416)" d="M 630.981818 103.463559 
L 1036.8 103.463559 
" style="fill:none;stroke:#ffffff;stroke-linecap:round;"/>
     </g>
     <g id="line2d_51"/>
    </g>
    <g id="ytick_18">
     <g id="line2d_52">
      <path clip-path="url(#pd1efb56416)" d="M 630.981818 50.579449 
L 1036.8 50.579449 
" style="fill:none;stroke:#ffffff;stroke-linecap:round;"/>
     </g>
     <g id="line2d_53"/>
    </g>
    <g id="ytick_19">
     <g id="line2d_54"/>
    </g>
    <g id="ytick_20">
     <g id="line2d_55"/>
    </g>
    <g id="ytick_21">
     <g id="line2d_56"/>
    </g>
    <g id="ytick_22">
     <g id="line2d_57"/>
    </g>
    <g id="ytick_23">
     <g id="line2d_58"/>
    </g>
    <g id="ytick_24">
     <g id="line2d_59"/>
    </g>
   </g>
   <g id="patch_108">
    <path clip-path="url(#pd1efb56416)" d="M 649.428099 315 
L 653.117355 315 
L 653.117355 70.886947 
L 649.428099 70.886947 
z
" style="fill:#4c72b0;"/>
   </g>
   <g id="patch_109">
    <path clip-path="url(#pd1efb56416)" d="M 653.117355 315 
L 656.806612 315 
L 656.806612 56.142857 
L 653.117355 56.142857 
z
" style="fill:#4c72b0;"/>
   </g>
   <g id="patch_110">
    <path clip-path="url(#pd1efb56416)" d="M 656.806612 315 
L 660.495868 315 
L 660.495868 146.796799 
L 656.806612 146.796799 
z
" style="fill:#4c72b0;"/>
   </g>
   <g id="patch_111">
    <path clip-path="url(#pd1efb56416)" d="M 660.495868 315 
L 664.185124 315 
L 664.185124 208.660631 
L 660.495868 208.660631 
z
" style="fill:#4c72b0;"/>
   </g>
   <g id="patch_112">
    <path clip-path="url(#pd1efb56416)" d="M 664.185124 315 
L 667.87438 315 
L 667.87438 243.54299 
L 664.185124 243.54299 
z
" style="fill:#4c72b0;"/>
   </g>
   <g id="patch_113">
    <path clip-path="url(#pd1efb56416)" d="M 667.87438 315 
L 671.563636 315 
L 671.563636 265.77547 
L 667.87438 265.77547 
z
" style="fill:#4c72b0;"/>
   </g>
   <g id="patch_114">
    <path clip-path="url(#pd1efb56416)" d="M 671.563636 315 
L 675.252893 315 
L 675.252893 280.350331 
L 671.563636 280.350331 
z
" style="fill:#4c72b0;"/>
   </g>
   <g id="patch_115">
    <path clip-path="url(#pd1efb56416)" d="M 675.252893 315 
L 678.942149 315 
L 678.942149 289.657934 
L 675.252893 289.657934 
z
" style="fill:#4c72b0;"/>
   </g>
   <g id="patch_116">
    <path clip-path="url(#pd1efb56416)" d="M 678.942149 315 
L 682.631405 315 
L 682.631405 296.511715 
L 678.942149 296.511715 
z
" style="fill:#4c72b0;"/>
   </g>
   <g id="patch_117">
    <path clip-path="url(#pd1efb56416)" d="M 682.631405 315 
L 686.320661 315 
L 686.320661 300.964557 
L 682.631405 300.964557 
z
" style="fill:#4c72b0;"/>
   </g>
   <g id="patch_118">
    <path clip-path="url(#pd1efb56416)" d="M 686.320661 315 
L 690.009917 315 
L 690.009917 303.45011 
L 686.320661 303.45011 
z
" style="fill:#4c72b0;"/>
   </g>
   <g id="patch_119">
    <path clip-path="url(#pd1efb56416)" d="M 690.009917 315 
L 693.699174 315 
L 693.699174 305.819318 
L 690.009917 305.819318 
z
" style="fill:#4c72b0;"/>
   </g>
   <g id="patch_120">
    <path clip-path="url(#pd1efb56416)" d="M 693.699174 315 
L 697.38843 315 
L 697.38843 307.765454 
L 693.699174 307.765454 
z
" style="fill:#4c72b0;"/>
   </g>
   <g id="patch_121">
    <path clip-path="url(#pd1efb56416)" d="M 697.38843 315 
L 701.077686 315 
L 701.077686 308.706791 
L 697.38843 308.706791 
z
" style="fill:#4c72b0;"/>
   </g>
   <g id="patch_122">
    <path clip-path="url(#pd1efb56416)" d="M 701.077686 315 
L 704.766942 315 
L 704.766942 310.081778 
L 701.077686 310.081778 
z
" style="fill:#4c72b0;"/>
   </g>
   <g id="patch_123">
    <path clip-path="url(#pd1efb56416)" d="M 704.766942 315 
L 708.456198 315 
L 708.456198 311.224075 
L 704.766942 311.224075 
z
" style="fill:#4c72b0;"/>
   </g>
   <g id="patch_124">
    <path clip-path="url(#pd1efb56416)" d="M 708.456198 315 
L 712.145455 315 
L 712.145455 311.858684 
L 708.456198 311.858684 
z
" style="fill:#4c72b0;"/>
   </g>
   <g id="patch_125">
    <path clip-path="url(#pd1efb56416)" d="M 712.145455 315 
L 715.834711 315 
L 715.834711 312.250026 
L 712.145455 312.250026 
z
" style="fill:#4c72b0;"/>
   </g>
   <g id="patch_126">
    <path clip-path="url(#pd1efb56416)" d="M 715.834711 315 
L 719.523967 315 
L 719.523967 312.96925 
L 715.834711 312.96925 
z
" style="fill:#4c72b0;"/>
   </g>
   <g id="patch_127">
    <path clip-path="url(#pd1efb56416)" d="M 719.523967 315 
L 723.213223 315 
L 723.213223 313.032711 
L 719.523967 313.032711 
z
" style="fill:#4c72b0;"/>
   </g>
   <g id="patch_128">
    <path clip-path="url(#pd1efb56416)" d="M 723.213223 315 
L 726.902479 315 
L 726.902479 313.371169 
L 723.213223 313.371169 
z
" style="fill:#4c72b0;"/>
   </g>
   <g id="patch_129">
    <path clip-path="url(#pd1efb56416)" d="M 726.902479 315 
L 730.591736 315 
L 730.591736 313.688474 
L 726.902479 313.688474 
z
" style="fill:#4c72b0;"/>
   </g>
   <g id="patch_130">
    <path clip-path="url(#pd1efb56416)" d="M 730.591736 315 
L 734.280992 315 
L 734.280992 313.709628 
L 730.591736 313.709628 
z
" style="fill:#4c72b0;"/>
   </g>
   <g id="patch_131">
    <path clip-path="url(#pd1efb56416)" d="M 734.280992 315 
L 737.970248 315 
L 737.970248 313.86828 
L 734.280992 313.86828 
z
" style="fill:#4c72b0;"/>
   </g>
   <g id="patch_132">
    <path clip-path="url(#pd1efb56416)" d="M 737.970248 315 
L 741.659504 315 
L 741.659504 313.910587 
L 737.970248 313.910587 
z
" style="fill:#4c72b0;"/>
   </g>
   <g id="patch_133">
    <path clip-path="url(#pd1efb56416)" d="M 741.659504 315 
L 745.34876 315 
L 745.34876 314.164431 
L 741.659504 314.164431 
z
" style="fill:#4c72b0;"/>
   </g>
   <g id="patch_134">
    <path clip-path="url(#pd1efb56416)" d="M 745.34876 315 
L 749.038017 315 
L 749.038017 314.196162 
L 745.34876 314.196162 
z
" style="fill:#4c72b0;"/>
   </g>
   <g id="patch_135">
    <path clip-path="url(#pd1efb56416)" d="M 749.038017 315 
L 752.727273 315 
L 752.727273 314.502889 
L 749.038017 314.502889 
z
" style="fill:#4c72b0;"/>
   </g>
   <g id="patch_136">
    <path clip-path="url(#pd1efb56416)" d="M 752.727273 315 
L 756.416529 315 
L 756.416529 314.576927 
L 752.727273 314.576927 
z
" style="fill:#4c72b0;"/>
   </g>
   <g id="patch_137">
    <path clip-path="url(#pd1efb56416)" d="M 756.416529 315 
L 760.105785 315 
L 760.105785 314.471159 
L 756.416529 314.471159 
z
" style="fill:#4c72b0;"/>
   </g>
   <g id="patch_138">
    <path clip-path="url(#pd1efb56416)" d="M 760.105785 315 
L 763.795041 315 
L 763.795041 314.471159 
L 760.105785 314.471159 
z
" style="fill:#4c72b0;"/>
   </g>
   <g id="patch_139">
    <path clip-path="url(#pd1efb56416)" d="M 763.795041 315 
L 767.484298 315 
L 767.484298 314.598081 
L 763.795041 314.598081 
z
" style="fill:#4c72b0;"/>
   </g>
   <g id="patch_140">
    <path clip-path="url(#pd1efb56416)" d="M 767.484298 315 
L 771.173554 315 
L 771.173554 314.555773 
L 767.484298 314.555773 
z
" style="fill:#4c72b0;"/>
   </g>
   <g id="patch_141">
    <path clip-path="url(#pd1efb56416)" d="M 771.173554 315 
L 774.86281 315 
L 774.86281 314.682695 
L 771.173554 314.682695 
z
" style="fill:#4c72b0;"/>
   </g>
   <g id="patch_142">
    <path clip-path="url(#pd1efb56416)" d="M 774.86281 315 
L 778.552066 315 
L 778.552066 314.809617 
L 774.86281 314.809617 
z
" style="fill:#4c72b0;"/>
   </g>
   <g id="patch_143">
    <path clip-path="url(#pd1efb56416)" d="M 778.552066 315 
L 782.241322 315 
L 782.241322 314.809617 
L 778.552066 314.809617 
z
" style="fill:#4c72b0;"/>
   </g>
   <g id="patch_144">
    <path clip-path="url(#pd1efb56416)" d="M 782.241322 315 
L 785.930579 315 
L 785.930579 314.830771 
L 782.241322 314.830771 
z
" style="fill:#4c72b0;"/>
   </g>
   <g id="patch_145">
    <path clip-path="url(#pd1efb56416)" d="M 785.930579 315 
L 789.619835 315 
L 789.619835 314.873078 
L 785.930579 314.873078 
z
" style="fill:#4c72b0;"/>
   </g>
   <g id="patch_146">
    <path clip-path="url(#pd1efb56416)" d="M 789.619835 315 
L 793.309091 315 
L 793.309091 314.873078 
L 789.619835 314.873078 
z
" style="fill:#4c72b0;"/>
   </g>
   <g id="patch_147">
    <path clip-path="url(#pd1efb56416)" d="M 793.309091 315 
L 796.998347 315 
L 796.998347 314.894232 
L 793.309091 314.894232 
z
" style="fill:#4c72b0;"/>
   </g>
   <g id="patch_148">
    <path clip-path="url(#pd1efb56416)" d="M 796.998347 315 
L 800.687603 315 
L 800.687603 314.904809 
L 796.998347 314.904809 
z
" style="fill:#4c72b0;"/>
   </g>
   <g id="patch_149">
    <path clip-path="url(#pd1efb56416)" d="M 800.687603 315 
L 804.37686 315 
L 804.37686 314.851924 
L 800.687603 314.851924 
z
" style="fill:#4c72b0;"/>
   </g>
   <g id="patch_150">
    <path clip-path="url(#pd1efb56416)" d="M 804.37686 315 
L 808.066116 315 
L 808.066116 314.851924 
L 804.37686 314.851924 
z
" style="fill:#4c72b0;"/>
   </g>
   <g id="patch_151">
    <path clip-path="url(#pd1efb56416)" d="M 808.066116 315 
L 811.755372 315 
L 811.755372 314.862501 
L 808.066116 314.862501 
z
" style="fill:#4c72b0;"/>
   </g>
   <g id="patch_152">
    <path clip-path="url(#pd1efb56416)" d="M 811.755372 315 
L 815.444628 315 
L 815.444628 314.915385 
L 811.755372 314.915385 
z
" style="fill:#4c72b0;"/>
   </g>
   <g id="patch_153">
    <path clip-path="url(#pd1efb56416)" d="M 815.444628 315 
L 819.133884 315 
L 819.133884 314.904809 
L 815.444628 314.904809 
z
" style="fill:#4c72b0;"/>
   </g>
   <g id="patch_154">
    <path clip-path="url(#pd1efb56416)" d="M 819.133884 315 
L 822.82314 315 
L 822.82314 314.873078 
L 819.133884 314.873078 
z
" style="fill:#4c72b0;"/>
   </g>
   <g id="patch_155">
    <path clip-path="url(#pd1efb56416)" d="M 822.82314 315 
L 826.512397 315 
L 826.512397 314.936539 
L 822.82314 314.936539 
z
" style="fill:#4c72b0;"/>
   </g>
   <g id="patch_156">
    <path clip-path="url(#pd1efb56416)" d="M 826.512397 315 
L 830.201653 315 
L 830.201653 314.925962 
L 826.512397 314.925962 
z
" style="fill:#4c72b0;"/>
   </g>
   <g id="patch_157">
    <path clip-path="url(#pd1efb56416)" d="M 830.201653 315 
L 833.890909 315 
L 833.890909 314.915385 
L 830.201653 314.915385 
z
" style="fill:#4c72b0;"/>
   </g>
   <g id="patch_158">
    <path clip-path="url(#pd1efb56416)" d="M 833.890909 315 
L 837.580165 315 
L 837.580165 314.947116 
L 833.890909 314.947116 
z
" style="fill:#4c72b0;"/>
   </g>
   <g id="patch_159">
    <path clip-path="url(#pd1efb56416)" d="M 837.580165 315 
L 841.269421 315 
L 841.269421 314.947116 
L 837.580165 314.947116 
z
" style="fill:#4c72b0;"/>
   </g>
   <g id="patch_160">
    <path clip-path="url(#pd1efb56416)" d="M 841.269421 315 
L 844.958678 315 
L 844.958678 314.978846 
L 841.269421 314.978846 
z
" style="fill:#4c72b0;"/>
   </g>
   <g id="patch_161">
    <path clip-path="url(#pd1efb56416)" d="M 844.958678 315 
L 848.647934 315 
L 848.647934 314.947116 
L 844.958678 314.947116 
z
" style="fill:#4c72b0;"/>
   </g>
   <g id="patch_162">
    <path clip-path="url(#pd1efb56416)" d="M 848.647934 315 
L 852.33719 315 
L 852.33719 314.947116 
L 848.647934 314.947116 
z
" style="fill:#4c72b0;"/>
   </g>
   <g id="patch_163">
    <path clip-path="url(#pd1efb56416)" d="M 852.33719 315 
L 856.026446 315 
L 856.026446 314.96827 
L 852.33719 314.96827 
z
" style="fill:#4c72b0;"/>
   </g>
   <g id="patch_164">
    <path clip-path="url(#pd1efb56416)" d="M 856.026446 315 
L 859.715702 315 
L 859.715702 314.947116 
L 856.026446 314.947116 
z
" style="fill:#4c72b0;"/>
   </g>
   <g id="patch_165">
    <path clip-path="url(#pd1efb56416)" d="M 859.715702 315 
L 863.404959 315 
L 863.404959 314.96827 
L 859.715702 314.96827 
z
" style="fill:#4c72b0;"/>
   </g>
   <g id="patch_166">
    <path clip-path="url(#pd1efb56416)" d="M 863.404959 315 
L 867.094215 315 
L 867.094215 314.989423 
L 863.404959 314.989423 
z
" style="fill:#4c72b0;"/>
   </g>
   <g id="patch_167">
    <path clip-path="url(#pd1efb56416)" d="M 867.094215 315 
L 870.783471 315 
L 870.783471 314.978846 
L 867.094215 314.978846 
z
" style="fill:#4c72b0;"/>
   </g>
   <g id="patch_168">
    <path clip-path="url(#pd1efb56416)" d="M 870.783471 315 
L 874.472727 315 
L 874.472727 314.978846 
L 870.783471 314.978846 
z
" style="fill:#4c72b0;"/>
   </g>
   <g id="patch_169">
    <path clip-path="url(#pd1efb56416)" d="M 874.472727 315 
L 878.161983 315 
L 878.161983 314.989423 
L 874.472727 314.989423 
z
" style="fill:#4c72b0;"/>
   </g>
   <g id="patch_170">
    <path clip-path="url(#pd1efb56416)" d="M 878.161983 315 
L 881.85124 315 
L 881.85124 314.947116 
L 878.161983 314.947116 
z
" style="fill:#4c72b0;"/>
   </g>
   <g id="patch_171">
    <path clip-path="url(#pd1efb56416)" d="M 881.85124 315 
L 885.540496 315 
L 885.540496 314.989423 
L 881.85124 314.989423 
z
" style="fill:#4c72b0;"/>
   </g>
   <g id="patch_172">
    <path clip-path="url(#pd1efb56416)" d="M 885.540496 315 
L 889.229752 315 
L 889.229752 314.957693 
L 885.540496 314.957693 
z
" style="fill:#4c72b0;"/>
   </g>
   <g id="patch_173">
    <path clip-path="url(#pd1efb56416)" d="M 889.229752 315 
L 892.919008 315 
L 892.919008 314.989423 
L 889.229752 314.989423 
z
" style="fill:#4c72b0;"/>
   </g>
   <g id="patch_174">
    <path clip-path="url(#pd1efb56416)" d="M 892.919008 315 
L 896.608264 315 
L 896.608264 314.957693 
L 892.919008 314.957693 
z
" style="fill:#4c72b0;"/>
   </g>
   <g id="patch_175">
    <path clip-path="url(#pd1efb56416)" d="M 896.608264 315 
L 900.297521 315 
L 900.297521 314.989423 
L 896.608264 314.989423 
z
" style="fill:#4c72b0;"/>
   </g>
   <g id="patch_176">
    <path clip-path="url(#pd1efb56416)" d="M 900.297521 315 
L 903.986777 315 
L 903.986777 315 
L 900.297521 315 
z
" style="fill:#4c72b0;"/>
   </g>
   <g id="patch_177">
    <path clip-path="url(#pd1efb56416)" d="M 903.986777 315 
L 907.676033 315 
L 907.676033 314.989423 
L 903.986777 314.989423 
z
" style="fill:#4c72b0;"/>
   </g>
   <g id="patch_178">
    <path clip-path="url(#pd1efb56416)" d="M 907.676033 315 
L 911.365289 315 
L 911.365289 315 
L 907.676033 315 
z
" style="fill:#4c72b0;"/>
   </g>
   <g id="patch_179">
    <path clip-path="url(#pd1efb56416)" d="M 911.365289 315 
L 915.054545 315 
L 915.054545 314.989423 
L 911.365289 314.989423 
z
" style="fill:#4c72b0;"/>
   </g>
   <g id="patch_180">
    <path clip-path="url(#pd1efb56416)" d="M 915.054545 315 
L 918.743802 315 
L 918.743802 314.989423 
L 915.054545 314.989423 
z
" style="fill:#4c72b0;"/>
   </g>
   <g id="patch_181">
    <path clip-path="url(#pd1efb56416)" d="M 918.743802 315 
L 922.433058 315 
L 922.433058 314.96827 
L 918.743802 314.96827 
z
" style="fill:#4c72b0;"/>
   </g>
   <g id="patch_182">
    <path clip-path="url(#pd1efb56416)" d="M 922.433058 315 
L 926.122314 315 
L 926.122314 315 
L 922.433058 315 
z
" style="fill:#4c72b0;"/>
   </g>
   <g id="patch_183">
    <path clip-path="url(#pd1efb56416)" d="M 926.122314 315 
L 929.81157 315 
L 929.81157 315 
L 926.122314 315 
z
" style="fill:#4c72b0;"/>
   </g>
   <g id="patch_184">
    <path clip-path="url(#pd1efb56416)" d="M 929.81157 315 
L 933.500826 315 
L 933.500826 315 
L 929.81157 315 
z
" style="fill:#4c72b0;"/>
   </g>
   <g id="patch_185">
    <path clip-path="url(#pd1efb56416)" d="M 933.500826 315 
L 937.190083 315 
L 937.190083 315 
L 933.500826 315 
z
" style="fill:#4c72b0;"/>
   </g>
   <g id="patch_186">
    <path clip-path="url(#pd1efb56416)" d="M 937.190083 315 
L 940.879339 315 
L 940.879339 314.989423 
L 937.190083 314.989423 
z
" style="fill:#4c72b0;"/>
   </g>
   <g id="patch_187">
    <path clip-path="url(#pd1efb56416)" d="M 940.879339 315 
L 944.568595 315 
L 944.568595 315 
L 940.879339 315 
z
" style="fill:#4c72b0;"/>
   </g>
   <g id="patch_188">
    <path clip-path="url(#pd1efb56416)" d="M 944.568595 315 
L 948.257851 315 
L 948.257851 315 
L 944.568595 315 
z
" style="fill:#4c72b0;"/>
   </g>
   <g id="patch_189">
    <path clip-path="url(#pd1efb56416)" d="M 948.257851 315 
L 951.947107 315 
L 951.947107 315 
L 948.257851 315 
z
" style="fill:#4c72b0;"/>
   </g>
   <g id="patch_190">
    <path clip-path="url(#pd1efb56416)" d="M 951.947107 315 
L 955.636364 315 
L 955.636364 315 
L 951.947107 315 
z
" style="fill:#4c72b0;"/>
   </g>
   <g id="patch_191">
    <path clip-path="url(#pd1efb56416)" d="M 955.636364 315 
L 959.32562 315 
L 959.32562 315 
L 955.636364 315 
z
" style="fill:#4c72b0;"/>
   </g>
   <g id="patch_192">
    <path clip-path="url(#pd1efb56416)" d="M 959.32562 315 
L 963.014876 315 
L 963.014876 315 
L 959.32562 315 
z
" style="fill:#4c72b0;"/>
   </g>
   <g id="patch_193">
    <path clip-path="url(#pd1efb56416)" d="M 963.014876 315 
L 966.704132 315 
L 966.704132 315 
L 963.014876 315 
z
" style="fill:#4c72b0;"/>
   </g>
   <g id="patch_194">
    <path clip-path="url(#pd1efb56416)" d="M 966.704132 315 
L 970.393388 315 
L 970.393388 315 
L 966.704132 315 
z
" style="fill:#4c72b0;"/>
   </g>
   <g id="patch_195">
    <path clip-path="url(#pd1efb56416)" d="M 970.393388 315 
L 974.082645 315 
L 974.082645 314.989423 
L 970.393388 314.989423 
z
" style="fill:#4c72b0;"/>
   </g>
   <g id="patch_196">
    <path clip-path="url(#pd1efb56416)" d="M 974.082645 315 
L 977.771901 315 
L 977.771901 314.989423 
L 974.082645 314.989423 
z
" style="fill:#4c72b0;"/>
   </g>
   <g id="patch_197">
    <path clip-path="url(#pd1efb56416)" d="M 977.771901 315 
L 981.461157 315 
L 981.461157 314.989423 
L 977.771901 314.989423 
z
" style="fill:#4c72b0;"/>
   </g>
   <g id="patch_198">
    <path clip-path="url(#pd1efb56416)" d="M 981.461157 315 
L 985.150413 315 
L 985.150413 315 
L 981.461157 315 
z
" style="fill:#4c72b0;"/>
   </g>
   <g id="patch_199">
    <path clip-path="url(#pd1efb56416)" d="M 985.150413 315 
L 988.839669 315 
L 988.839669 315 
L 985.150413 315 
z
" style="fill:#4c72b0;"/>
   </g>
   <g id="patch_200">
    <path clip-path="url(#pd1efb56416)" d="M 988.839669 315 
L 992.528926 315 
L 992.528926 315 
L 988.839669 315 
z
" style="fill:#4c72b0;"/>
   </g>
   <g id="patch_201">
    <path clip-path="url(#pd1efb56416)" d="M 992.528926 315 
L 996.218182 315 
L 996.218182 315 
L 992.528926 315 
z
" style="fill:#4c72b0;"/>
   </g>
   <g id="patch_202">
    <path clip-path="url(#pd1efb56416)" d="M 996.218182 315 
L 999.907438 315 
L 999.907438 314.989423 
L 996.218182 314.989423 
z
" style="fill:#4c72b0;"/>
   </g>
   <g id="patch_203">
    <path clip-path="url(#pd1efb56416)" d="M 999.907438 315 
L 1003.596694 315 
L 1003.596694 315 
L 999.907438 315 
z
" style="fill:#4c72b0;"/>
   </g>
   <g id="patch_204">
    <path clip-path="url(#pd1efb56416)" d="M 1003.596694 315 
L 1007.28595 315 
L 1007.28595 315 
L 1003.596694 315 
z
" style="fill:#4c72b0;"/>
   </g>
   <g id="patch_205">
    <path clip-path="url(#pd1efb56416)" d="M 1007.28595 315 
L 1010.975207 315 
L 1010.975207 314.989423 
L 1007.28595 314.989423 
z
" style="fill:#4c72b0;"/>
   </g>
   <g id="patch_206">
    <path clip-path="url(#pd1efb56416)" d="M 1010.975207 315 
L 1014.664463 315 
L 1014.664463 315 
L 1010.975207 315 
z
" style="fill:#4c72b0;"/>
   </g>
   <g id="patch_207">
    <path clip-path="url(#pd1efb56416)" d="M 1014.664463 315 
L 1018.353719 315 
L 1018.353719 314.989423 
L 1014.664463 314.989423 
z
" style="fill:#4c72b0;"/>
   </g>
   <g id="line2d_60">
    <path clip-path="url(#pd1efb56416)" d="M 652.598458 315 
L 652.598458 82.309915 
" style="fill:none;stroke:#ff0000;stroke-linecap:round;stroke-width:1.75;"/>
   </g>
   <g id="line2d_61">
    <path clip-path="url(#pd1efb56416)" d="M 794.365886 315 
L 794.365886 82.309915 
" style="fill:none;stroke:#ff0000;stroke-linecap:round;stroke-width:1.75;"/>
   </g>
   <g id="line2d_62">
    <path clip-path="url(#pd1efb56416)" d="M 807.669596 315 
L 807.669596 82.309915 
" style="fill:none;stroke:#ff0000;stroke-linecap:round;stroke-width:1.75;"/>
   </g>
   <g id="patch_208">
    <path d="M 630.981818 315 
L 630.981818 43.2 
" style="fill:none;"/>
   </g>
   <g id="patch_209">
    <path d="M 1036.8 315 
L 1036.8 43.2 
" style="fill:none;"/>
   </g>
   <g id="patch_210">
    <path d="M 630.981818 315 
L 1036.8 315 
" style="fill:none;"/>
   </g>
   <g id="patch_211">
    <path d="M 630.981818 43.2 
L 1036.8 43.2 
" style="fill:none;"/>
   </g>
  </g>
 </g>
 <defs>
  <clipPath id="p7bb57c5205">
   <rect height="271.8" width="405.818182" x="144" y="43.2"/>
  </clipPath>
  <clipPath id="pd1efb56416">
   <rect height="271.8" width="405.818182" x="630.981818" y="43.2"/>
  </clipPath>
 </defs>
</svg>
